<svg width="290" height="79" viewBox="0 0 290 79" fill="none" xmlns="http://www.w3.org/2000/svg">
<g clip-path="url(#clip0)">
<path fill-rule="evenodd" clip-rule="evenodd" d="M109.397 78.7506L97.1824 66.4762V41.226L135.222 3H158.604L160 4.40279V15.6251L138.363 37.719L140.457 39.9986H158.255L160 41.9274V53.8511L135.222 78.7506H109.397ZM123.007 17.0279V40.1739L134.873 52.0976H158.604V41.4014H139.759L134.175 35.6148V21.9377L140.457 15.4498H158.604V4.40279H135.571L123.007 17.0279ZM12.1073 78.9353V41.5971H0V28.3848L24.9165 3.36949H37.9011L40.0067 5.48346L42.8142 3.36949H62.8175V16.758L50.7103 29.2656V53.7524L25.2674 78.9353H12.1073ZM38.4275 15.8771V53.0478H49.482V16.758L37.1992 4.42648H26.3202V15.8771H38.4275ZM61.7647 4.42648H45.2707L56.1498 15.3487H61.7647V4.42648Z" fill="#0B0A15"/>
<path fill-rule="evenodd" clip-rule="evenodd" d="M50.254 78.7506V65.7748V59.2869V47.1879L50.2746 41.0507H50.603V28.2502L75.73 3H113.072V17.0279V28.2502L107.313 35.2642L103.3 39.4725V40.3493H113.072V54.2018L88.6425 78.7506H50.254ZM112.025 41.5767H76.777V52.0976H76.8386V52.1541H112.086V41.6331H112.025V41.5767ZM105.743 22.9897H76.428V32.8093H76.4896V32.8657H105.804V23.0462H105.743V22.9897ZM112.025 4.05209H76.777V14.9237H76.8386V14.9802H112.086V4.10854H112.025V4.05209Z" fill="#0B0A15"/>
<path d="M179.584 6.63999H176.24V4.79999L185.104 4.79999V6.63999H181.76V16H179.584V6.63999Z" fill="#0B0A15"/>
<path d="M186.989 14.16V6.63999L188.829 4.79999H194.589L196.429 6.63999V14.16L194.589 16L188.829 16L186.989 14.16ZM193.437 14.144L194.253 13.328V7.47199L193.437 6.65599H189.981L189.165 7.47199V13.328L189.981 14.144L193.437 14.144Z" fill="#0B0A15"/>
<path d="M199.352 4.79999L201.528 4.79999V9.48799H203.224L205.928 4.79999H208.376L205.096 10.384L208.648 16H206.152L203.208 11.344H201.528V16H199.352V4.79999Z" fill="#0B0A15"/>
<path d="M210.774 4.79999L218.87 4.79999V6.63999L212.95 6.63999V9.47199L218.406 9.47199V11.28L212.95 11.28V14.16H218.87V16H210.774V4.79999Z" fill="#0B0A15"/>
<path d="M221.477 4.79999H223.429L228.421 12.4H228.453V4.79999H230.549V16H228.597L223.605 8.41599H223.573V16H221.477V4.79999Z" fill="#0B0A15"/>
<path d="M177.04 23.8H185.136V25.64H179.216V28.472H184.672V30.28H179.216V33.16H185.136V35H177.04V23.8Z" fill="#0B0A15"/>
<path d="M187.743 23.8H189.695L194.687 31.4H194.719V23.8H196.815V35H194.863L189.871 27.416H189.839V35H187.743V23.8Z" fill="#0B0A15"/>
<path d="M199.739 33.16V25.64L201.579 23.8H207.147L208.955 25.608V27.32L206.779 27.32V26.408L206.027 25.656H202.731L201.915 26.472V32.328L202.731 33.144H206.059L206.843 32.36V30.616H204.443V28.76L208.955 28.76V33.16L207.115 35H201.579L199.739 33.16Z" fill="#0B0A15"/>
<path d="M211.792 23.8H213.968V35H211.792V23.8Z" fill="#0B0A15"/>
<path d="M217.134 23.8H219.086L224.078 31.4H224.11V23.8H226.206V35H224.254L219.262 27.416H219.23V35H217.134V23.8Z" fill="#0B0A15"/>
<path d="M229.29 23.8H237.386V25.64H231.466V28.472H236.922V30.28H231.466V33.16H237.386V35H229.29V23.8Z" fill="#0B0A15"/>
<path d="M239.993 23.8H248.089V25.64H242.169V28.472H247.625V30.28H242.169V33.16H248.089V35H239.993V23.8Z" fill="#0B0A15"/>
<path d="M259.496 31.288V35H257.32V31.784L256.36 30.712H252.872V35H250.696V23.8H257.72L259.432 25.528V28.92L258.344 30.024L259.496 31.288ZM252.872 28.92H256.728L257.288 28.36V26.184L256.728 25.624H252.872V28.92Z" fill="#0B0A15"/>
<path d="M262.573 23.8H264.749V35H262.573V23.8Z" fill="#0B0A15"/>
<path d="M267.915 23.8H269.867L274.859 31.4H274.891V23.8H276.987V35H275.035L270.043 27.416H270.011V35H267.915V23.8Z" fill="#0B0A15"/>
<path d="M279.911 33.16V25.64L281.751 23.8H287.319L289.127 25.608V27.32H286.951V26.408L286.199 25.656H282.903L282.087 26.472V32.328L282.903 33.144H286.231L287.015 32.36V30.616H284.615V28.76H289.127V33.16L287.287 35H281.751L279.911 33.16Z" fill="#0B0A15"/>
<path d="M176.88 52.16V44.64L178.72 42.8H184.192L186 44.608V46.32H183.824V45.408L183.072 44.656H179.872L179.056 45.472V51.328L179.872 52.144H183.072L183.824 51.392V50.48H186V52.192L184.192 54H178.72L176.88 52.16Z" fill="#0B0A15"/>
<path d="M188.364 52.16V44.64L190.204 42.8H195.964L197.804 44.64V52.16L195.964 54H190.204L188.364 52.16ZM194.812 52.144L195.628 51.328V45.472L194.812 44.656H191.356L190.54 45.472V51.328L191.356 52.144H194.812Z" fill="#0B0A15"/>
<path d="M200.727 42.8H202.743L206.071 50.032H206.103L209.447 42.8H211.463V54H209.367V47.184H209.335L206.759 52.432H205.415L202.855 47.184H202.823V54H200.727V42.8Z" fill="#0B0A15"/>
<path d="M214.54 42.8H216.556L219.884 50.032H219.916L223.26 42.8H225.276V54H223.18V47.184H223.148L220.572 52.432H219.228L216.668 47.184H216.636V54H214.54V42.8Z" fill="#0B0A15"/>
<path d="M228.192 52.16V44.64L230.032 42.8H235.792L237.632 44.64V52.16L235.792 54H230.032L228.192 52.16ZM234.64 52.144L235.456 51.328V45.472L234.64 44.656H231.184L230.368 45.472V51.328L231.184 52.144H234.64Z" fill="#0B0A15"/>
<path d="M240.556 42.8H242.508L247.5 50.4H247.532V42.8H249.628V54H247.676L242.684 46.416H242.652V54H240.556V42.8Z" fill="#0B0A15"/>
<path d="M252.472 52.272V50.672H254.616V51.616L255.144 52.144H258.456L259 51.6V49.744L258.472 49.216H254.232L252.504 47.488V44.528L254.232 42.8H259.288L261.016 44.528V46.144H258.872V45.184L258.344 44.656H255.176L254.648 45.184V46.832L255.176 47.36H259.416L261.144 49.088V52.24L259.384 54H254.2L252.472 52.272Z" fill="#0B0A15"/>
</g>
<defs>
<clipPath id="clip0">
<rect width="290" height="78.9353" fill="white"/>
</clipPath>
</defs>
</svg>
